%
M48
M72
T01C0.02362
T02C0.04000
%
T01
X50555Y62800
X20555Y88800
X23555Y104800
X101555Y102800
X135555Y101800
X173555Y76800
X209555Y83800
X217555Y91800
X225555Y91800
X233555Y83800
X225555Y107800
X217555Y107800
X209555Y115800
X233555Y115800
X190555Y99800
X121555Y62800
X159555Y36800
X155555Y32800
X151555Y28800
T02
X155555Y10800
X165555Y10800
X175555Y10800
X185555Y10800
X195555Y10800
X205555Y10800
X215555Y10800
X225555Y10800
X235555Y10800
M30
