G75*
%MOIN*%
%OFA0B0*%
%FSLAX25Y25*%
%IPPOS*%
%LPD*%
%AMOC8*
5,1,8,0,0,1.08239X$1,22.5*
%
%ADD10R,0.06693X0.05906*%
%ADD11R,0.09843X0.25591*%
%ADD12R,0.15748X0.07874*%
%ADD13R,0.07874X0.15748*%
%ADD14R,0.02756X0.04724*%
%ADD15R,0.13386X0.03937*%
%ADD16R,0.33858X0.42126*%
%ADD17R,0.15157X0.21654*%
%ADD18R,0.03150X0.03150*%
%ADD19R,0.03937X0.04331*%
%ADD20R,0.22047X0.09055*%
%ADD21R,0.13386X0.05512*%
%ADD22C,0.06000*%
%ADD23C,0.03962*%
%ADD24C,0.05000*%
%ADD25C,0.03200*%
D10*
X0066839Y0088761D03*
X0102272Y0088761D03*
X0102272Y0108839D03*
X0066839Y0108839D03*
D11*
X0042555Y0018200D03*
X0113555Y0018200D03*
X0113555Y0067413D03*
X0042555Y0067413D03*
D12*
X0124579Y0101800D03*
X0152531Y0101800D03*
D13*
X0166555Y0071776D03*
X0166555Y0043824D03*
D14*
X0167555Y0091517D03*
X0167555Y0106083D03*
D15*
X0180059Y0106493D03*
X0180059Y0113186D03*
X0180059Y0099800D03*
X0180059Y0093107D03*
X0180059Y0086414D03*
D16*
X0221791Y0099800D03*
D17*
X0232142Y0049800D03*
X0192969Y0049800D03*
D18*
X0018508Y0104800D03*
X0012602Y0104800D03*
D19*
X0013012Y0094800D03*
X0020098Y0094800D03*
D20*
X0040555Y0087265D03*
X0040555Y0120335D03*
D21*
X0052957Y0108721D03*
X0052957Y0098879D03*
D22*
X0155555Y0013800D02*
X0155555Y0007800D01*
X0165555Y0007800D02*
X0165555Y0013800D01*
X0175555Y0013800D02*
X0175555Y0007800D01*
X0185555Y0007800D02*
X0185555Y0013800D01*
X0195555Y0013800D02*
X0195555Y0007800D01*
X0205555Y0007800D02*
X0205555Y0013800D01*
X0215555Y0013800D02*
X0215555Y0007800D01*
X0225555Y0007800D02*
X0225555Y0013800D01*
X0235555Y0013800D02*
X0235555Y0007800D01*
D23*
X0159555Y0036800D03*
X0155555Y0032800D03*
X0151555Y0028800D03*
X0121555Y0062800D03*
X0173555Y0076800D03*
X0209555Y0083800D03*
X0217555Y0091800D03*
X0225555Y0091800D03*
X0233555Y0083800D03*
X0225555Y0107800D03*
X0217555Y0107800D03*
X0209555Y0115800D03*
X0233555Y0115800D03*
X0190555Y0099800D03*
X0135555Y0101800D03*
X0101555Y0102800D03*
X0050555Y0062800D03*
X0020555Y0088800D03*
X0023555Y0104800D03*
D24*
X0052957Y0108721D02*
X0053075Y0108839D01*
X0066839Y0108839D01*
X0056720Y0098879D02*
X0052957Y0098879D01*
X0056720Y0098879D02*
X0066839Y0088761D01*
X0042555Y0070800D02*
X0050555Y0062800D01*
X0042555Y0067413D02*
X0042555Y0070800D01*
X0102272Y0088761D02*
X0139492Y0088761D01*
X0152531Y0101800D01*
X0135555Y0101800D02*
X0124579Y0101800D01*
X0101555Y0102800D02*
X0101555Y0109556D01*
X0102272Y0108839D01*
X0102272Y0088761D02*
X0102272Y0029483D01*
X0113555Y0018200D01*
X0120955Y0010800D01*
X0155555Y0010800D01*
X0165555Y0010800D01*
X0175555Y0010800D01*
X0151555Y0028800D02*
X0166555Y0043800D01*
X0166555Y0043824D01*
X0172531Y0049800D01*
X0192969Y0049800D01*
X0168531Y0071776D02*
X0166555Y0071776D01*
X0168531Y0071776D02*
X0173555Y0076800D01*
X0121555Y0062800D02*
X0113555Y0070800D01*
X0113555Y0067413D01*
X0113555Y0018200D02*
X0042555Y0018200D01*
D25*
X0167555Y0091517D02*
X0172657Y0086414D01*
X0180059Y0086414D01*
X0180059Y0093107D02*
X0189248Y0093107D01*
X0192969Y0089387D01*
X0192969Y0049800D01*
X0200555Y0077800D02*
X0228555Y0049800D01*
X0232142Y0049800D01*
X0200555Y0077800D02*
X0200555Y0100800D01*
X0194862Y0106493D01*
X0180059Y0106493D01*
X0167965Y0106493D01*
X0167555Y0106083D01*
X0163917Y0113186D02*
X0180059Y0113186D01*
X0163917Y0113186D02*
X0152531Y0101800D01*
X0167555Y0094800D02*
X0167555Y0091517D01*
X0167555Y0094800D02*
X0172555Y0099800D01*
X0180059Y0099800D01*
X0190555Y0099800D01*
X0023555Y0104800D02*
X0018508Y0104800D01*
X0012602Y0104800D02*
X0012602Y0095209D01*
X0013012Y0094800D01*
X0020098Y0094800D02*
X0020555Y0094343D01*
X0020555Y0088800D01*
M02*
