G75*
%MOIN*%
%OFA0B0*%
%FSLAX25Y25*%
%IPPOS*%
%LPD*%
%AMOC8*
5,1,8,0,0,1.08239X$1,22.5*
%
%ADD10R,0.07293X0.06506*%
%ADD11R,0.10443X0.26191*%
%ADD12R,0.16348X0.08474*%
%ADD13R,0.08474X0.16348*%
%ADD14R,0.03356X0.05324*%
%ADD15R,0.13986X0.04537*%
%ADD16R,0.34458X0.42726*%
%ADD17R,0.15757X0.22254*%
%ADD18R,0.03750X0.03750*%
%ADD19R,0.04537X0.04931*%
%ADD20R,0.22647X0.09655*%
%ADD21R,0.13986X0.06112*%
%ADD22C,0.06600*%
%ADD23C,0.04562*%
D10*
X0066839Y0088761D03*
X0102272Y0088761D03*
X0102272Y0108839D03*
X0066839Y0108839D03*
D11*
X0042555Y0018200D03*
X0113555Y0018200D03*
X0113555Y0067413D03*
X0042555Y0067413D03*
D12*
X0124579Y0101800D03*
X0152531Y0101800D03*
D13*
X0166555Y0071776D03*
X0166555Y0043824D03*
D14*
X0167555Y0091517D03*
X0167555Y0106083D03*
D15*
X0180059Y0106493D03*
X0180059Y0113186D03*
X0180059Y0099800D03*
X0180059Y0093107D03*
X0180059Y0086414D03*
D16*
X0221791Y0099800D03*
D17*
X0232142Y0049800D03*
X0192969Y0049800D03*
D18*
X0018508Y0104800D03*
X0012602Y0104800D03*
D19*
X0013012Y0094800D03*
X0020098Y0094800D03*
D20*
X0040555Y0087265D03*
X0040555Y0120335D03*
D21*
X0052957Y0108721D03*
X0052957Y0098879D03*
D22*
X0155555Y0013800D02*
X0155555Y0007800D01*
X0165555Y0007800D02*
X0165555Y0013800D01*
X0175555Y0013800D02*
X0175555Y0007800D01*
X0185555Y0007800D02*
X0185555Y0013800D01*
X0195555Y0013800D02*
X0195555Y0007800D01*
X0205555Y0007800D02*
X0205555Y0013800D01*
X0215555Y0013800D02*
X0215555Y0007800D01*
X0225555Y0007800D02*
X0225555Y0013800D01*
X0235555Y0013800D02*
X0235555Y0007800D01*
D23*
X0159555Y0036800D03*
X0155555Y0032800D03*
X0151555Y0028800D03*
X0121555Y0062800D03*
X0173555Y0076800D03*
X0209555Y0083800D03*
X0217555Y0091800D03*
X0225555Y0091800D03*
X0233555Y0083800D03*
X0225555Y0107800D03*
X0217555Y0107800D03*
X0209555Y0115800D03*
X0233555Y0115800D03*
X0190555Y0099800D03*
X0135555Y0101800D03*
X0101555Y0102800D03*
X0050555Y0062800D03*
X0020555Y0088800D03*
X0023555Y0104800D03*
M02*
